PathFileType	4	(X/Y/Z)	c:/Users/goper/Files/vsCode/490R/osim_files/C06/C06_Static_02.trc
DataRate	CameraRate	NumFrames	NumMarkers	Units                	OrigDataRate	OrigDataStartFrame	OrigNumFrames
250.00	250.00	8	36	mm	250.0	1198	1368
                Frame#	Time	LPSIS			LASIS			LTH1			LTH2			LTH3			LTH4			LLFE			LMFE			LSH1			LSH2			LSH3			LSH4			LLMAL			LMMAL			LCAL			LMTP5			LTOE			LMTP1			RPSIS			RASIS			RTH1			RTH2			RTH3			RTH4			RLFE			RMFE			RSH1			RSH2			RSH3			RSH4			RLMAL			RMMAL			RCAL			RMTP1			RTOE			RMTP5		
		X1	Y1	Z1	X2	Y2	Z2	X3	Y3	Z3	X4	Y4	Z4	X5	Y5	Z5	X6	Y6	Z6	X7	Y7	Z7	X8	Y8	Z8	X9	Y9	Z9	X10	Y10	Z10	X11	Y11	Z11	X12	Y12	Z12	X13	Y13	Z13	X14	Y14	Z14	X15	Y15	Z15	X16	Y16	Z16	X17	Y17	Z17	X18	Y18	Z18	X19	Y19	Z19	X20	Y20	Z20	X21	Y21	Z21	X22	Y22	Z22	X23	Y23	Z23	X24	Y24	Z24	X25	Y25	Z25	X26	Y26	Z26	X27	Y27	Z27	X28	Y28	Z28	X29	Y29	Z29	X30	Y30	Z30	X31	Y31	Z31	X32	Y32	Z32	X33	Y33	Z33	X34	Y34	Z34	X35	Y35	Z35	X36	Y36	Z36

1198	4.78800	-374.72101	1013.32043	462.84641	-205.12601	978.21942	352.09119	-299.44373	793.75720	268.31104	-294.16422	731.56561	259.35922	-225.44127	791.21204	281.32986	-229.25140	730.84912	270.99268	-301.66821	480.70007	268.52185	-309.12161	444.83960	378.90219	-373.68906	376.04211	235.30846	-366.29245	332.87247	230.72742	-309.29501	382.10324	233.24507	-312.19223	338.08539	228.15939	-330.77649	92.10536	237.50693	-322.33237	103.33794	315.18320	-392.41553	65.54121	282.45062	-219.89301	32.03989	202.46237	-166.13048	57.13338	268.82858	-192.24937	37.99989	314.82614	-371.73508	1011.19806	534.47736	-184.95184	972.81067	591.73224	-277.68216	789.54578	689.84955	-270.19403	726.81201	691.93677	-205.34267	790.68329	669.67609	-208.10580	728.01031	675.82758	-290.12924	463.02161	678.61737	-286.11496	460.35431	568.32751	-348.35941	392.59647	709.28839	-346.19272	344.77469	716.09753	-288.11505	385.31589	699.92700	-294.71167	339.60419	707.01593	-323.63626	90.46526	696.15552	-315.84283	105.71226	618.14661	-388.26245	62.21606	656.11761	-184.63365	36.05709	610.46802	-163.85509	54.14381	655.82092	-205.66216	28.22548	723.95123
1199	4.79200	-374.70532	1013.33008	462.84409	-205.10889	978.17181	352.09991	-299.42883	793.75244	268.31006	-294.16568	731.56726	259.35461	-225.43707	791.19049	281.32077	-229.25063	730.81366	270.99054	-301.66855	480.68909	268.52240	-309.10159	444.84088	378.88684	-373.70038	376.05405	235.30626	-366.29626	332.88968	230.75053	-309.28122	382.10251	233.23389	-312.19470	338.07907	228.17502	-330.77402	92.10747	237.50595	-322.33847	103.31142	315.20197	-392.41602	65.51068	282.48883	-219.88071	32.01531	202.46547	-167.04173	56.69527	269.60144	-192.25304	37.95127	314.83765	-371.72437	1011.21899	534.47412	-184.95253	972.74762	591.74255	-277.65164	789.51410	689.86578	-270.18073	726.78534	691.92993	-205.32266	790.63391	669.69910	-208.09846	727.96429	675.82690	-290.15228	462.97076	678.63385	-286.10254	460.33948	568.30707	-348.34283	392.59482	709.29852	-346.21051	344.75912	716.10229	-288.14514	385.25140	699.94318	-294.72507	339.57666	707.01337	-323.62930	90.42589	696.16785	-315.83963	105.71642	618.15234	-388.27975	62.17420	656.16339	-184.61752	36.05513	610.47015	-163.83104	54.14617	655.83099	-205.68924	28.18201	723.98047
1200	4.79600	-374.71365	1013.33997	462.85602	-205.09116	978.14087	352.09772	-299.39432	793.72638	268.32138	-294.16046	731.53772	259.37863	-225.43773	791.17963	281.32809	-229.25029	730.80359	270.99060	-301.67072	480.66180	268.53445	-309.12637	444.82440	378.87677	-373.69189	376.04681	235.30965	-366.30051	332.89673	230.74997	-309.26816	382.08957	233.24556	-312.19611	338.07993	228.18204	-330.78864	92.09283	237.50714	-322.35571	103.28246	315.21286	-392.41550	65.46867	282.49600	-219.90138	31.99338	202.45587	-167.05237	56.57296	269.62662	-192.26575	37.91873	314.84711	-371.73825	1011.23083	534.48169	-184.96992	972.69586	591.74530	-277.63599	789.49719	689.88367	-270.18802	726.76160	691.95758	-205.32135	790.59442	669.69244	-208.10493	727.92279	675.81787	-290.14743	462.96152	678.62640	-286.10394	460.31204	568.30981	-348.36731	392.57617	709.30896	-346.21194	344.71936	716.12079	-288.15588	385.22238	699.95807	-294.72696	339.54028	707.03253	-323.65555	90.41985	696.20856	-315.84824	105.69724	618.16785	-388.27896	62.13550	656.16199	-184.60750	36.03888	610.47656	-163.84712	54.12788	655.81720	-205.68483	28.13783	723.96600
1201	4.80000	-374.68365	1013.34723	462.87518	-205.05836	978.10236	352.10562	-299.40155	793.71930	268.33630	-294.15469	731.53003	259.37646	-225.43242	791.15411	281.31827	-229.21742	730.79779	271.00040	-301.65543	480.62637	268.52856	-309.12079	444.82590	378.89282	-373.71036	376.04626	235.30237	-366.28998	332.85239	230.74783	-309.26688	382.05710	233.23430	-312.18460	338.07333	228.18555	-330.75995	92.05000	237.51506	-322.34274	103.27648	315.21237	-392.43170	65.48373	282.50726	-219.89584	31.97617	202.47002	-166.12236	57.03556	268.79523	-192.25763	37.88977	314.85654	-371.73868	1011.23090	534.49335	-184.93878	972.68054	591.74286	-277.61658	789.48785	689.88000	-270.12476	726.75610	691.94733	-205.31657	790.56134	669.68958	-208.10789	727.87317	675.80713	-290.14816	462.94583	678.64752	-286.11307	460.28812	568.32269	-348.38406	392.57819	709.33533	-346.21796	344.73108	716.14520	-288.16577	385.21011	699.95618	-294.73068	339.52704	707.02734	-323.64578	90.41040	696.19678	-315.83795	105.66833	618.16650	-388.26395	62.13754	656.17401	-184.61232	36.01429	610.49158	-163.83397	54.09897	655.82727	-205.66641	28.12758	723.97748
1202	4.80400	-374.67462	1013.35291	462.89853	-205.05035	978.08997	352.10806	-299.38406	793.70374	268.32669	-294.15979	731.50061	259.38873	-225.43732	791.12244	281.31219	-229.23877	730.74323	270.96799	-301.66730	480.61261	268.53198	-309.11838	444.84393	378.89093	-373.72351	376.03778	235.32161	-366.29376	332.80945	230.75594	-309.28540	382.03244	233.23183	-312.19147	338.03796	228.17859	-330.78583	92.03528	237.53195	-322.37015	103.28979	315.22656	-392.41464	65.47047	282.51840	-219.89809	31.93971	202.47389	-167.00171	56.49866	269.56076	-192.23315	37.88797	314.84174	-371.71167	1011.22766	534.51819	-184.91324	972.66187	591.73383	-277.62375	789.49231	689.90369	-270.13199	726.75653	691.97144	-205.30579	790.55133	669.71051	-208.09567	727.87744	675.81488	-290.16196	462.94128	678.65417	-286.09271	460.26456	568.33832	-348.40424	392.57004	709.34583	-346.24680	344.73941	716.17139	-288.16766	385.18390	699.96545	-294.73016	339.53146	707.04211	-323.65414	90.41816	696.21552	-315.83368	105.64613	618.18152	-388.26279	62.16183	656.16174	-184.60606	35.99708	610.50854	-163.83617	54.08489	655.81769	-205.68143	28.11008	723.98376
1203	4.80800	-374.63519	1013.36298	462.92538	-205.04387	978.06244	352.09576	-299.36127	793.67810	268.34229	-294.14160	731.49786	259.39160	-225.42911	791.10065	281.31638	-229.21799	730.74121	270.98831	-301.66766	480.59091	268.53217	-309.10977	444.84396	378.89258	-373.70377	376.01917	235.33238	-366.28583	332.77960	230.78326	-309.28665	382.01532	233.23128	-312.18207	338.06152	228.20239	-330.76910	92.01182	237.53313	-322.39636	103.30899	315.22565	-392.44287	65.46685	282.53775	-219.89297	31.93751	202.47592	-167.13078	56.35614	269.73257	-192.24799	37.87499	314.84280	-371.71060	1011.23706	534.53986	-184.87251	972.66071	591.72296	-277.63309	789.49664	689.91754	-270.14395	726.78491	691.97443	-205.30429	790.52930	669.69403	-208.08553	727.87903	675.79608	-290.17480	462.93387	678.65326	-285.90860	460.21579	568.03284	-348.41290	392.58246	709.37012	-346.22598	344.73618	716.15863	-288.16528	385.19751	699.97015	-294.72577	339.54510	707.02979	-323.67200	90.42136	696.21558	-315.83026	105.63511	618.18964	-388.28531	62.16273	656.17822	-184.59341	35.99446	610.50500	-163.81500	54.07084	655.82324	-205.69107	28.09622	723.97644
1204	4.81200	-374.63260	1013.36243	462.94269	-205.02655	978.08301	352.09055	-299.35898	793.68207	268.33475	-294.13571	731.48419	259.38547	-225.38937	791.12109	281.30716	-229.21013	730.74768	270.98596	-301.66522	480.59116	268.54141	-309.12308	444.86060	378.87680	-373.72534	376.02942	235.32616	-366.32239	332.81323	230.75630	-309.30475	382.02762	233.21651	-312.21799	338.06729	228.16568	-330.75165	92.00820	237.52060	-322.37085	103.33331	315.22726	-392.44659	65.49279	282.51718	-219.90289	31.94607	202.45139	-167.04135	56.46004	269.61395	-192.24191	37.89256	314.83005	-371.70859	1011.24268	534.54510	-184.84834	972.65833	591.72150	-277.60037	789.51160	689.90527	-270.13440	726.78558	691.96826	-205.25728	790.56824	669.66193	-208.04674	727.89551	675.78510	-290.18207	462.94818	678.65338	-285.89050	460.23218	568.01129	-348.39474	392.58633	709.35846	-346.21912	344.74445	716.15912	-288.14340	385.22897	699.94202	-294.72778	339.56174	707.01587	-323.67575	90.43353	696.19580	-315.80762	105.61396	618.19934	-388.24503	62.18580	656.14758	-184.60515	35.98188	610.50360	-163.83191	54.07836	655.81866	-205.68636	28.13074	723.97260
1205	4.81600	-374.57895	1013.37549	462.93524	-204.98051	978.08826	352.07022	-299.36606	793.68890	268.35620	-294.09363	731.50519	259.40680	-225.40994	791.10626	281.30011	-229.21950	730.74115	270.97672	-301.67004	480.59967	268.53201	-309.12817	444.84402	378.87219	-373.71484	376.04208	235.33371	-366.26059	332.77255	230.74268	-309.28790	382.03830	233.23038	-312.16034	338.07953	228.16499	-330.75647	92.01923	237.54213	-322.36804	103.34499	315.21365	-392.42215	65.50483	282.50793	-219.88983	31.95953	202.45276	-167.07294	56.50154	269.59732	-192.21922	37.91269	314.81955	-371.66394	1011.24164	534.56525	-184.80850	972.67267	591.70215	-277.56635	789.50671	689.90106	-270.10370	726.79474	691.98010	-205.24643	790.57422	669.64740	-208.03320	727.90979	675.77026	-290.16733	462.96707	678.64441	-285.89169	460.22931	568.00836	-348.38446	392.60333	709.34888	-346.23062	344.75369	716.16364	-288.13599	385.25790	699.93475	-294.71457	339.58783	707.00879	-323.65417	90.44936	696.21173	-315.80383	105.63348	618.20117	-388.26556	62.18266	656.13098	-184.61691	35.99809	610.50330	-163.82631	54.08358	655.81799	-205.64888	28.14814	723.96625
